<?xml version="1.0"?>
<svg xmlns="http://www.w3.org/2000/svg"
  xmlns:xlink="http://www.w3.org/1999/xlink"
  xmlns:svgjs="http://svgjs.com/svgjs" version="1.1" width="512" height="512" x="0" y="0" viewBox="0 0 511 512" style="enable-background:new 0 0 512 512" xml:space="preserve" class="">
  <g transform="matrix(1,0,0,1,14.999999999999943,0)">
    <path xmlns="http://www.w3.org/2000/svg" d="m481.203125 288.042969c0 123.6875-107.609375 223.957031-240.351563 223.957031-132.742187 0-240.351562-100.269531-240.351562-223.957031 0-59.414063 24.828125-113.417969 65.339844-153.503907 25.019531-24.757812 60.441406-36.078124 95.171875-30.332031 24.199219 4.003907 51.269531 6.242188 79.839843 6.242188 28.570313 0 55.640626-2.238281 79.839844-6.242188 34.730469-5.746093 70.152344 5.574219 95.171875 30.332031 40.515625 40.085938 65.339844 94.089844 65.339844 153.503907zm0 0" fill="#eb5757" data-original="#ff7061" style="" class=""/>
    <g xmlns="http://www.w3.org/2000/svg" fill="#f74f43">
      <path d="m265.0625 510.878906c-7.964844.738282-16.042969 1.121094-24.210938 1.121094-132.738281 0-240.351562-100.269531-240.351562-223.960938 0-59.410156 24.828125-113.414062 65.34375-153.496093 25.011719-24.757813 60.441406-36.078125 95.167969-30.339844 2.316406.382813 4.667969.75 7.035156 1.101563-20.078125 4.398437-38.796875 14.402343-53.785156 29.238281-40.515625 40.082031-65.34375 94.085937-65.34375 153.496093 0 116.078126 94.765625 211.527344 216.144531 222.839844zm0 0" fill="#df4444" data-original="#f74f43" style="" class=""/>
      <path d="m94.847656 200.128906c-1.539062 0-3.09375-.460937-4.445312-1.414062-3.488282-2.460938-4.320313-7.28125-1.859375-10.769532 28.074219-39.792968 67.789062-52.476562 88.964843-56.496093 4.191407-.792969 8.234376 1.960937 9.03125 6.152343.792969 4.191407-1.960937 8.234376-6.152343 9.03125-18.878907 3.582032-54.277344 14.871094-79.21875 50.222657-1.503907 2.132812-3.894531 3.273437-6.320313 3.273437zm0 0" fill="#df4444" data-original="#f74f43" style="" class=""/>
      <path d="m376.621094 201.089844c-2.425782 0-4.8125-1.140625-6.316406-3.273438-35.902344-50.886718-93.367188-52.003906-93.941407-52.007812-4.265625-.039063-7.695312-3.53125-7.652343-7.796875.035156-4.242188 3.488281-7.65625 7.722656-7.65625h.074218c2.675782.027343 66.003907 1.265625 106.421876 58.550781 2.460937 3.488281 1.628906 8.308594-1.859376 10.769531-1.351562.953125-2.90625 1.414063-4.449218 1.414063zm0 0" fill="#df4444" data-original="#f74f43" style="" class=""/>
      <path d="m270.890625 197.796875c-3.929687 0-7.292969-2.988281-7.679687-6.980469-1.621094-16.667968-7.296876-28.121094-11.777344-34.792968-4.5-6.703126-8.601563-9.878907-8.640625-9.910157-3.433594-2.527343-4.167969-7.367187-1.636719-10.800781s7.371094-4.167969 10.804688-1.636719c.933593.6875 22.902343 17.289063 26.628906 55.644531.410156 4.25-2.695313 8.027344-6.945313 8.4375-.253906.023438-.503906.039063-.753906.039063zm0 0" fill="#df4444" data-original="#f74f43" style="" class=""/>
      <path d="m352.113281 139.894531c0-14-49.8125-25.347656-111.261719-25.347656-61.445312 0-111.257812 11.347656-111.257812 25.347656s49.8125 25.347657 111.257812 25.347657c61.449219 0 111.261719-11.347657 111.261719-25.347657zm0 0" fill="#df4444" data-original="#f74f43" style="" class=""/>
    </g>
    <path xmlns="http://www.w3.org/2000/svg" d="m160.578125 126.46875c28 17.902344 132.550781 17.902344 160.550781 0 35.804688-22.898438 57.976563-52.183594 49.519532-65.410156-8.457032-13.222656-44.34375-5.382813-80.152344 17.515625-2.757813 1.765625-5.4375 3.570312-8.027344 5.398437-5.5625 3.9375-13.195312-.019531-13.191406-6.832031 0-.0625 0-.121094 0-.183594 0-42.503906-12.726563-76.957031-28.425782-76.957031-15.699218 0-28.425781 34.453125-28.425781 76.953125v.1875c.007813 6.8125-7.625 10.765625-13.191406 6.832031-2.585937-1.832031-5.265625-3.632812-8.027344-5.398437-35.808593-22.898438-71.691406-30.738281-80.148437-17.515625-8.460938 13.226562 13.710937 42.507812 49.519531 65.410156zm0 0" fill="#77bc4d" data-original="#77bc4d" style="" class=""/>
    <path xmlns="http://www.w3.org/2000/svg" d="m321.125 126.464844c-28 17.90625-132.542969 17.90625-160.542969 0-35.808593-22.902344-57.980469-52.179688-49.523437-65.40625.453125-.699219.980468-1.347656 1.578125-1.914063 7.035156 14.132813 24.589843 31.78125 47.945312 46.71875 28 17.902344 132.542969 17.902344 160.542969 0 23.351562-14.9375 40.90625-32.585937 47.945312-46.71875.59375.566407 1.121094 1.214844 1.574219 1.914063 8.457031 13.226562-13.710937 42.503906-49.519531 65.40625zm0 0" fill="#479838" data-original="#479838" style="" class=""/>
    <path xmlns="http://www.w3.org/2000/svg" d="m404.292969 279.800781c-4.136719 0-7.5625-3.277343-7.714844-7.445312-.753906-20.683594-6.589844-32.191407-6.644531-32.300781-2.003906-3.769532-.574219-8.445313 3.191406-10.449219 3.769531-2.003907 8.445312-.574219 10.449219 3.191406.308593.582031 7.554687 14.460937 8.445312 38.996094.15625 4.265625-3.175781 7.847656-7.441406 8.003906-.09375.003906-.191406.003906-.285156.003906zm0 0" fill="#df4444" data-original="#f74f43" style="" class=""/>
  </g>
</svg>
