<svg xmlns="http://www.w3.org/2000/svg" width="72.162" height="123.092" viewBox="0 0 72.162 123.092">
  <g id="Group_4" data-name="Group 4" transform="translate(-151.305 -253)">
    <path id="Polygon_2" data-name="Polygon 2" d="M33.5,0,67,57H0Z" transform="translate(216 253) rotate(90)" fill="#ea5858"/>
    <g id="press" transform="translate(101.493 286.5)">
      <path id="Path_4" data-name="Path 4" d="M121.973,93.392a8.589,8.589,0,0,0-12.414-7.7,8.583,8.583,0,0,0-12.714-4.446,8.59,8.59,0,0,0-10.69-3.458V67.516a8.288,8.288,0,0,0-16.576,0V94.259a11.664,11.664,0,0,0-16.041-3.641l-2.5,1.563a2.624,2.624,0,0,0-.906,3.49c.111.2,11.16,20.283,15.643,29.888q.115.246.23.485a21.867,21.867,0,0,0,8.179,9.072,22.25,22.25,0,0,0,11.742,3.342H99.239A22.563,22.563,0,0,0,121.8,116.107l.172-18.281s0-.008,0-.013,0-.008,0-.012V93.392Zm-10.549,34.8a17.209,17.209,0,0,1-12.185,5.014H85.931a16.931,16.931,0,0,1-15.2-9.449c-.067-.139-.134-.279-.2-.421-3.721-7.972-11.6-22.507-14.608-28.023l.4-.249a6.416,6.416,0,0,1,8.847,2.042l4.806,7.7a2.624,2.624,0,0,0,4.851-1.389V67.516a3.039,3.039,0,0,1,6.079,0V97.8a2.624,2.624,0,0,0,5.249,0V85.708a3.345,3.345,0,0,1,6.691,0V97.8a2.624,2.624,0,1,0,5.249,0V88.508a3.345,3.345,0,0,1,6.691,0V97.8a2.624,2.624,0,1,0,5.249,0V93.392a3.345,3.345,0,0,1,6.691,0v4.393l-.172,18.272a17.211,17.211,0,0,1-5.129,12.138Z" transform="translate(0 -48.866)" fill="#ffa2a2"/>
      <path id="Path_5" data-name="Path 5" d="M102.507,21.829a2.624,2.624,0,0,0,2.624-2.624,13.957,13.957,0,0,1,27.913,0,2.624,2.624,0,1,0,5.249,0,19.205,19.205,0,0,0-38.411,0A2.624,2.624,0,0,0,102.507,21.829Z" transform="translate(-41.312)" fill="#ffa2a2"/>
    </g>
  </g>
</svg>
